<?xml version="1.0" standalone="no"?>
<!DOCTYPE svg PUBLIC "-//W3C//DTD SVG 20010904//EN"
 "http://www.w3.org/TR/2001/REC-SVG-20010904/DTD/svg10.dtd">
<svg version="1.0" xmlns="http://www.w3.org/2000/svg"
 width="640.000000pt" height="640.000000pt" viewBox="0 0 640.000000 640.000000"
 preserveAspectRatio="xMidYMid meet">

<g transform="translate(0.000000,640.000000) scale(0.100000,-0.100000)"
fill="#EFCB00" stroke="none">
<path d="M3157 6378 c-28 -26 -477 -1122 -477 -1163 0 -28 35 -65 62 -65 10 0
75 10 145 21 162 27 446 29 598 5 189 -31 190 -31 214 -7 11 11 21 31 21 44 0
31 -452 1142 -475 1167 -24 26 -58 25 -88 -2z m213 -658 c88 -217 160 -398
160 -403 0 -4 -3 -6 -8 -4 -4 3 -79 11 -166 18 -127 9 -191 9 -318 -1 -88 -6
-161 -10 -164 -7 -2 2 69 184 158 405 90 220 166 398 170 394 4 -4 79 -185
168 -402z"/>
<path d="M941 5461 c-11 -11 -21 -33 -21 -47 0 -31 461 -1128 486 -1155 9 -10
30 -19 47 -19 34 0 42 9 153 159 100 134 261 296 394 394 151 111 160 120 160
154 0 17 -9 38 -20 48 -26 24 -1095 475 -1141 482 -29 4 -41 1 -58 -16z m594
-355 c214 -91 391 -169 393 -174 1 -5 -34 -40 -80 -78 -106 -86 -216 -196
-302 -301 -37 -46 -71 -83 -75 -83 -4 0 -12 10 -18 23 -30 65 -323 765 -323
770 0 4 3 7 8 7 4 0 183 -74 397 -164z"/>
<path d="M4831 5244 c-305 -129 -563 -242 -573 -251 -18 -16 -23 -48 -12 -78
4 -9 34 -35 68 -57 178 -121 358 -293 479 -458 110 -149 120 -160 154 -160 17
0 38 8 47 19 23 25 486 1124 486 1154 0 38 -27 67 -63 67 -18 -1 -267 -101
-586 -236z m434 7 c-11 -35 -324 -774 -331 -780 -3 -3 -17 8 -31 24 -104 126
-207 234 -285 301 -50 44 -105 91 -122 106 -17 14 -28 29 -25 32 7 7 781 335
792 336 5 0 6 -9 2 -19z"/>
<path d="M3115 4833 c-807 -39 -1464 -672 -1546 -1489 -13 -125 1 -343 31
-482 134 -631 630 -1126 1267 -1263 153 -33 438 -38 603 -10 317 54 619 206
849 426 214 205 345 411 433 679 63 193 81 325 75 546 -8 266 -49 441 -158
670 -82 171 -166 288 -319 440 -182 183 -361 300 -587 385 -184 70 -440 108
-648 98z m337 -162 c309 -53 566 -188 794 -415 227 -227 363 -483 420 -791 29
-153 27 -425 -4 -564 -65 -287 -188 -523 -381 -724 -236 -246 -539 -404 -874
-453 -142 -21 -369 -14 -505 15 -502 107 -910 450 -1091 916 -74 191 -101 336
-101 556 0 176 18 293 70 450 174 527 618 913 1160 1009 146 26 363 26 512 1z"/>
<path d="M596 3491 c-376 -154 -566 -236 -578 -251 -24 -29 -23 -63 2 -85 25
-23 1136 -475 1167 -475 13 0 33 10 44 21 24 24 24 26 -7 214 -24 152 -22 436
5 598 11 70 21 136 21 147 0 29 -36 60 -67 59 -16 0 -280 -103 -587 -228z
m477 -68 c-10 -128 -7 -391 5 -485 5 -38 6 -68 2 -68 -11 0 -795 321 -802 328
-6 6 771 329 795 331 5 1 5 -47 0 -106z"/>
<path d="M5169 3699 c-24 -24 -24 -25 7 -219 10 -68 16 -167 16 -280 0 -113
-6 -212 -16 -280 -31 -194 -31 -195 -7 -219 11 -11 32 -21 46 -21 14 0 276
102 582 226 561 227 603 248 603 294 0 47 -40 67 -602 294 -306 124 -568 226
-582 226 -14 0 -36 -10 -47 -21z m562 -331 c219 -89 395 -166 390 -171 -10
-10 -788 -327 -803 -327 -5 0 -8 7 -5 15 4 8 11 82 18 165 8 113 8 187 0 300
-7 83 -14 157 -18 165 -3 8 0 15 7 15 6 0 191 -73 411 -162z"/>
<path d="M1407 2142 c-26 -29 -487 -1128 -487 -1161 0 -34 30 -61 68 -61 29 0
1128 463 1153 486 11 9 19 30 19 47 0 34 -11 44 -160 154 -165 121 -337 301
-458 479 -22 34 -48 64 -57 68 -30 11 -62 6 -78 -12z m139 -294 c82 -100 220
-238 315 -314 38 -31 69 -60 69 -64 0 -4 -21 -17 -47 -28 -393 -167 -746 -313
-750 -309 -6 7 328 797 337 797 5 0 39 -37 76 -82z"/>
<path d="M4912 2153 c-7 -3 -35 -37 -61 -76 -122 -180 -275 -338 -456 -473
-146 -109 -155 -117 -155 -151 0 -17 8 -37 18 -46 24 -22 1129 -487 1156 -487
36 0 66 28 66 61 0 33 -461 1132 -487 1161 -15 17 -53 22 -81 11z m192 -619
c92 -218 165 -398 163 -400 -6 -7 -797 328 -797 336 0 4 33 34 73 66 39 32
115 101 167 154 53 52 122 128 154 168 32 39 62 72 66 72 4 0 82 -178 174
-396z"/>
<path d="M2701 1231 c-11 -11 -21 -33 -21 -47 0 -44 448 -1136 476 -1161 32
-29 56 -29 87 0 28 25 477 1120 477 1162 0 14 -10 35 -21 46 -24 24 -25 24
-219 -6 -141 -22 -420 -22 -560 -1 -194 31 -195 31 -219 7z m349 -162 c113 -8
187 -8 300 0 83 7 157 14 165 18 8 3 15 0 15 -5 0 -15 -317 -793 -327 -803 -8
-8 -333 775 -333 801 0 7 7 10 15 7 8 -4 82 -11 165 -18z"/>
</g>
</svg>
